/* XPM */
static char *result[] = {
/* columns rows colors chars-per-pixel */
"16 16 164 2 ",
"   c #FF5B0C",
".  c #FF5E1E",
"X  c #FF650D",
"o  c #FF6710",
"O  c #FF6916",
"+  c #FF6817",
"@  c #FF6E1E",
"#  c #FF7B16",
"$  c #FF781E",
"%  c #FF5425",
"&  c #FF5C30",
"*  c #FF6725",
"=  c #FF6F25",
"-  c #FF722A",
";  c #FF7834",
":  c #FF774A",
">  c #FF6256",
",  c #FF6B51",
"<  c #FF9708",
"1  c #FF980A",
"2  c #FF990B",
"3  c #FF980C",
"4  c #FF990D",
"5  c #FF990E",
"6  c #FF9A0F",
"7  c #FF9A10",
"8  c #FF9B12",
"9  c #FF9C13",
"0  c #FF9C15",
"q  c #FF9C16",
"w  c #FF9D17",
"e  c #FF9D19",
"r  c #FF9E18",
"t  c #FF9E19",
"y  c #FF9E1A",
"u  c #FF991F",
"i  c #FF9F1C",
"p  c #FF9F1D",
"a  c #FFA01C",
"s  c #FFA01D",
"d  c #FFA01E",
"f  c #FF8228",
"g  c #FF8828",
"h  c #FF8333",
"j  c #FF8934",
"k  c #FF8C34",
"l  c #FF9434",
"z  c #FFA120",
"x  c #FFA121",
"c  c #FFA220",
"v  c #FFA224",
"b  c #FFA324",
"n  c #FFA225",
"m  c #FFA325",
"M  c #FFA326",
"N  c #FFA427",
"B  c #FFA428",
"V  c #FFA528",
"C  c #FFA429",
"Z  c #FFA52A",
"A  c #FFA52C",
"S  c #FFA62C",
"D  c #FFA62D",
"F  c #FFA62E",
"G  c #FFA72E",
"H  c #FFA72F",
"J  c #FFA82F",
"K  c #FFA730",
"L  c #FFA731",
"P  c #FFA830",
"I  c #FFA831",
"U  c #FFA832",
"Y  c #FFA933",
"T  c #FFA934",
"R  c #FFA935",
"E  c #FFAA35",
"W  c #FFAA36",
"Q  c #FFAA37",
"!  c #FFAB38",
"~  c #FFAA39",
"^  c #FFAB39",
"/  c #FFAB3A",
"(  c #FFAC39",
")  c #FFAC3A",
"_  c #FFAC3B",
"`  c #FFAC3C",
"'  c #FFAD3D",
"]  c #FFAE3F",
"[  c #FF9E50",
"{  c #FF955E",
"}  c #FFAE40",
"|  c #FFAE41",
" . c #FFAF41",
".. c #FFAF43",
"X. c #FFB146",
"o. c #FFB147",
"O. c #FFB249",
"+. c #FFB14A",
"@. c #FFB24A",
"#. c #FFB34B",
"$. c #FFB04D",
"%. c #FFB44C",
"&. c #FFB44D",
"*. c #FFB44E",
"=. c #FFA158",
"-. c #FFB552",
";. c #FFB553",
":. c #FFB653",
">. c #FFB757",
",. c #FFBA5B",
"<. c #FFBB5E",
"1. c #FFAB68",
"2. c #FFBC61",
"3. c #FFBD62",
"4. c #FFBD63",
"5. c #FFA375",
"6. c #FFC26E",
"7. c #FFC77B",
"8. c #FE9797",
"9. c #FFB88F",
"0. c #FFBBA1",
"q. c #FFBFA5",
"w. c #FFB4A9",
"e. c #FFB4AF",
"r. c #FFB2B1",
"t. c #FFB6B6",
"y. c #FFB8B3",
"u. c #FFBBBB",
"i. c #FFC780",
"p. c #FFC981",
"a. c #FFCD8A",
"s. c #FFD397",
"d. c #FFD49B",
"f. c #FFCFA5",
"g. c #FFC1AD",
"h. c #FFD7A3",
"j. c #FFDBA8",
"k. c #FFDAA9",
"l. c #FFDCAB",
"z. c #FFDBAC",
"x. c #FFC5B6",
"c. c #FFDFB2",
"v. c #FFE0B6",
"b. c #FFC3C3",
"n. c #FFC4C3",
"m. c #FFC9C7",
"M. c #FFDBC1",
"N. c #FFD5D1",
"B. c #FFE5C1",
"V. c #FFE7C6",
"C. c #FFECD3",
"Z. c #FFEFD9",
"A. c #FFF1E0",
"S. c #FFF2E0",
"D. c #FFF4E5",
"F. c #FFF5E5",
"G. c #FFF5E9",
"H. c #FFF7ED",
"J. c #FFFAF3",
"K. c #FFFAF4",
"L. c #FFFBF5",
"P. c #FFFBF7",
"I. c white",
"U. c None",
/* pixels */
"U.U.U.U.U.U L A m p 9 U.U.U.U.U.",
"U.U.U.J T Q ~ E F v e 5 < U.U.U.",
"U.U.C L / } ..%. .P b r 7 3 U.U.",
"U.s V R | >.;.k.s.v._ N a w q U.",
"U.y Z ) @.j.L.K.B.G.O.( D n z U.",
"5 t A } :.4.C.P.V.L.S.<.` U Z N ",
"6 i K X.,.6.J.Z.p.d.I.l.o.` Y D ",
"8 c E #.2.a.8.e.g.w.r.{ ; * ! P ",
"e N ) &.3.z.t.f.0.N.x.[ $.k ! U ",
"x S ' *.h.A.y.i.: q.b.& +.l W K ",
"N P ' *.c.F.u.D.> n.m.% ] f H A ",
"U.Y ' o.-.l.5.H., 9.1.. I $ M U.",
"U.T ) ..O.7.=.M.h l g + u # p U.",
"U.U.! ' } ..j - = @ O o X   U.U.",
"U.U.U.^ ( ^ Q K B s 9 2 1 U.U.U.",
"U.U.U.U.U.Y G N d 0 4 U.U.U.U.U."
};
