/* XPM */
static char *result[] = {
/* columns rows colors chars-per-pixel */
"32 32 125 2 ",
"   c #FF2E05",
".  c #FF2A0A",
"X  c #FF330C",
"o  c #FF2D1E",
"O  c #FF3111",
"+  c #FF3B14",
"@  c #FF3918",
"#  c #FF2727",
"$  c #FF2C21",
"%  c #FF3425",
"&  c #FF3736",
"*  c #FF4D0A",
"=  c #FF5A0E",
"-  c #FF4117",
";  c #FF4B10",
":  c #FF421A",
">  c #FF5414",
",  c #FF5A13",
"<  c #FF551A",
"1  c #FF5A1B",
"2  c #FF601A",
"3  c #FF4328",
"4  c #FF5D2E",
"5  c #FF5B38",
"6  c #FF6622",
"7  c #FF6824",
"8  c #FF652B",
"9  c #FF6B2B",
"0  c #FF7227",
"q  c #FF7D25",
"w  c #FF722A",
"e  c #FF643B",
"r  c #FF7230",
"t  c #FF7F31",
"y  c #FF5F5F",
"u  c #FF6C4A",
"i  c #FF7944",
"p  c #FF7D4F",
"a  c #FF6351",
"s  c #FF645B",
"d  c #FF6767",
"f  c #FF6A65",
"g  c #FF6D6D",
"h  c #FF7271",
"j  c #FF7B7B",
"k  c #FF9707",
"l  c #FF9708",
"z  c #FF990D",
"x  c #FF9C14",
"c  c #FF951E",
"v  c #FF9E1B",
"b  c #FFA01E",
"n  c #FF8D21",
"m  c #FF882D",
"M  c #FF9426",
"N  c #FF9E24",
"B  c #FF843A",
"V  c #FF9034",
"C  c #FF9A35",
"Z  c #FF9E3C",
"A  c #FFA224",
"S  c #FFA62C",
"D  c #FFA82F",
"F  c #FFA631",
"G  c #FFA934",
"H  c #FFA03C",
"J  c #FFAC3B",
"K  c #FF8941",
"L  c #FF8048",
"P  c #FF8A57",
"I  c #FF835D",
"U  c #FF8C58",
"Y  c #FF9752",
"T  c #FF925E",
"R  c #FF9C59",
"E  c #FFA741",
"W  c #FFAE41",
"Q  c #FFA449",
"!  c #FFB045",
"~  c #FFB24B",
"^  c #FFB653",
"/  c #FFB857",
"(  c #FFB65A",
")  c #FFB95C",
"_  c #FF9765",
"`  c #FF9668",
"'  c #FF807E",
"]  c #FF9773",
"[  c #FF917E",
"{  c #FFBD64",
"}  c #FFBF69",
"|  c #FFC06D",
" . c #FFC372",
".. c #FFC67D",
"X. c #FFC87E",
"o. c #FF8483",
"O. c #FF8D8D",
"+. c #FF998C",
"@. c #FF9592",
"#. c #FF9C9B",
"$. c #FFB084",
"%. c #FFBEBD",
"&. c #FFCA84",
"*. c #FFCD8C",
"=. c #FFCA96",
"-. c #FFD193",
";. c #FFD69D",
":. c #FFD6A0",
">. c #FFD8A5",
",. c #FFDCAB",
"<. c #FFDEB2",
"1. c #FFE2BA",
"2. c #FFCAC3",
"3. c #FFE6C2",
"4. c #FFE9CA",
"5. c #FFEDD5",
"6. c #FFEEDA",
"7. c #FFF1DF",
"8. c #FFF2E0",
"9. c #FFF6EA",
"0. c #FFF8EE",
"q. c #FFF6F5",
"w. c #FFFBF5",
"e. c #FFFFFE",
"r. c None",
/* pixels */
"r.r.r.r.r.r.r.r.r.r.r.r.F D S S A b b b r.r.r.r.r.r.r.r.r.r.r.r.",
"r.r.r.r.r.r.r.r.r.G F G G F D D S A b b x z z r.r.r.r.r.r.r.r.r.",
"r.r.r.r.r.r.r.D F G G G G G G G S S A b x x z k k r.r.r.r.r.r.r.",
"r.r.r.r.r.r.D F G G J J J J J G F D A A b b x z z k r.r.r.r.r.r.",
"r.r.r.r.r.A F F G J J J J W J J J G F S A b x x z z z r.r.r.r.r.",
"r.r.r.r.A D F G J J ! ! ~ ! ~  ./ J G F S A b b x z z z r.r.r.r.",
"r.r.r.b A S F J J ! ! ~ ~ ~ ~ 9.w.~ X.&.J D A b b x x x x r.r.r.",
"r.r.b b A S F J W ! ~ &.) / | e.4.^ 5.e.~ G D S A b v v x b r.r.",
"r.r.x b A D F J ! ~ } e.e.8.5.e.<.) e.8.~ J J F S A A b b b r.r.",
"r.x x b A D G W ~ ^  .4.w.e.e.e.e.w.e.4./ ~ W J F D S A A A A r.",
"r.x v b S D J ! ~ / ) { ;.e.e.e.e.e.e.e.0.-.~ W J G F D S A A r.",
"r.z x b A F J ~ ^ / { } <.e.e.8.X.:.5.e.e.e.:.~ ! J G G S S S r.",
"z z x b S F J ~ / ) | | 5.e.e.3.X.....4.e.e.w.^ ! ! J G F F D S ",
"z x v A D G W ~ / { |  .w.e.e.>.&.&...,.e.e.e.{ ~ ! ! J G F D S ",
"z x v A D J W ^ ) {  .=.O.d h a I I u s g d f 8 : @ - 0 J G D D ",
"x x b A D J ! ^ ) }  .<.h q.e.e.e.e.e.e.e.w.*.) ^ ~ E : J G F D ",
"x b b S G J ~ ^ ) }  .5.g w.5.1.5.w.e.e.e.;.{ / / ~ W w J G G F ",
"x b A S G J ~ ^ ) {  .w.j w.>._ u ` +.%.%.j i K Q ~ E 6 J J F F ",
"b b A D J ! ~ ^ { | *.e.j w.&.$.T 5 p q.q.O.% K ~ ~ E w J G F F ",
"b A S F J J ~ ^ 4.w.w.e.o.6.&.&.P e U w.e.O.$ B ~ W J m G F F D ",
"r.A D F J J ~ / w.e.e.e.o.q.6.<.] o o.e.e.O.3 r W W J 1 G D S r.",
"r.S D F J W ! ~ ^ X.,.0.' w.e.e.#.# O.e.e.@.O 9 W J F 1 D D S r.",
"r.S F G J W ! ~ ^ / / 9.h *.6.e.#.& @.e.6.R + 6 J F S > A S A r.",
"r.r.G G J W W ! ~ ^ | e.[ / 6.e.L 4 Y ) ! 0 1 q D S A ; A A r.r.",
"r.r.G G J J ! ! ~ ~  .8.$./ e.2.9 9 w Z C < . , n N N = v A r.r.",
"r.r.r.G J J J ! ! ~ ~ ~ 9 ( <.=.Z H C F C M n c c v v = v r.r.r.",
"r.r.r.r.J J J J ! W ! ! B E ! W J J F D A A v v x x x * r.r.r.r.",
"r.r.r.r.r.J J J W J ! J V 6 + X O X X X X             r.r.r.r.r.",
"r.r.r.r.r.r.J J J J J J J J G F D S A v v x z z z z r.r.r.r.r.r.",
"r.r.r.r.r.r.r.G J J G J G F D D A A v v x z z k k r.r.r.r.r.r.r.",
"r.r.r.r.r.r.r.r.r.G F F F D D A A v v x z z l r.r.r.r.r.r.r.r.r.",
"r.r.r.r.r.r.r.r.r.r.r.r.S S A A b v x x r.r.r.r.r.r.r.r.r.r.r.r."
};
