/* XPM */
static char *result[] = {
/* columns rows colors chars-per-pixel */
"64 64 179 2 ",
"   c #FF0C03",
".  c #FF1103",
"X  c #FF1508",
"o  c #FF1A0A",
"O  c #FF1616",
"+  c #FF1C14",
"@  c #FF1C1B",
"#  c #FF2305",
"$  c #FF2D07",
"%  c #FF240C",
"&  c #FF2A0C",
"*  c #FF3307",
"=  c #FF3A06",
"-  c #FF340C",
";  c #FF3B0C",
":  c #FF2B1D",
">  c #FF3411",
",  c #FF3E13",
"<  c #FF331D",
"1  c #FF3C19",
"2  c #FF2323",
"3  c #FF2823",
"4  c #FF2B2B",
"5  c #FF3B21",
"6  c #FF382D",
"7  c #FF3433",
"8  c #FF3934",
"9  c #FF3738",
"0  c #FF3C3C",
"q  c #FF4207",
"w  c #FF430E",
"e  c #FF4215",
"r  c #FF4C16",
"t  c #FF4719",
"y  c #FF4C1C",
"u  c #FF561E",
"i  c #FF5C1E",
"p  c #FF6B0F",
"a  c #FF730E",
"s  c #FF641E",
"d  c #FF751C",
"f  c #FF7B1E",
"g  c #FF7E13",
"h  c #FF4325",
"j  c #FF4A21",
"k  c #FF452B",
"l  c #FF4B2E",
"z  c #FF5422",
"x  c #FF5C25",
"c  c #FF5E2B",
"v  c #FF4031",
"b  c #FF4932",
"n  c #FF4E38",
"m  c #FF433C",
"M  c #FF5835",
"N  c #FF5E3A",
"B  c #FF5433",
"V  c #FF6525",
"C  c #FF6A23",
"Z  c #FF632B",
"A  c #FF6E2C",
"S  c #FF7C25",
"D  c #FF7329",
"F  c #FF7A2A",
"G  c #FF6D32",
"H  c #FF6D3E",
"J  c #FF623D",
"K  c #FF7432",
"L  c #FF7438",
"P  c #FF4444",
"I  c #FF4847",
"U  c #FF4D4C",
"Y  c #FF5143",
"T  c #FF5549",
"R  c #FF5353",
"E  c #FF6646",
"W  c #FF6B40",
"Q  c #FF7344",
"!  c #FF734B",
"~  c #FF7D4E",
"^  c #FF6D53",
"/  c #FF715A",
"(  c #FF9707",
")  c #FF9709",
"_  c #FF990D",
"`  c #FF8917",
"'  c #FF831B",
"]  c #FF8819",
"[  c #FF9515",
"{  c #FF9C14",
"}  c #FF9E1A",
"|  c #FF951A",
" . c #FFA01E",
".. c #FF8324",
"X. c #FF8C2B",
"o. c #FF832B",
"O. c #FF9722",
"+. c #FF9926",
"@. c #FF9D2B",
"#. c #FF8534",
"$. c #FF8B31",
"%. c #FF8A3A",
"&. c #FF9434",
"*. c #FF943A",
"=. c #FF9C3C",
"-. c #FFA224",
";. c #FFA62C",
":. c #FFA82F",
">. c #FFA631",
",. c #FFA934",
"<. c #FFA53D",
"1. c #FFAC3B",
"2. c #FF9945",
"3. c #FF9348",
"4. c #FF9D49",
"5. c #FF8553",
"6. c #FF855F",
"7. c #FF965F",
"8. c #FFA741",
"9. c #FFAE42",
"0. c #FFA449",
"q. c #FFAD4B",
"w. c #FFB146",
"e. c #FFB34C",
"r. c #FFA850",
"t. c #FFB653",
"y. c #FFB857",
"u. c #FFB45B",
"i. c #FFB95B",
"p. c #FF8463",
"a. c #FF9C65",
"s. c #FFAB6C",
"d. c #FFBD63",
"f. c #FFBF69",
"g. c #FFAD73",
"h. c #FFB479",
"j. c #FFC16D",
"k. c #FFC374",
"l. c #FFC67B",
"z. c #FFC87E",
"x. c #FF8686",
"c. c #FF8D8C",
"v. c #FF9393",
"b. c #FF9897",
"n. c #FF9A9A",
"m. c #FFAEAE",
"M. c #FFB5B4",
"N. c #FFBCBC",
"B. c #FFCA83",
"V. c #FFCD8B",
"C. c #FFC583",
"Z. c #FFD295",
"A. c #FFD49C",
"S. c #FFD5A2",
"D. c #FFDAA6",
"F. c #FFDBAA",
"G. c #FFC0BF",
"H. c #FFDEB2",
"J. c #FFE0B7",
"K. c #FFE2BC",
"L. c #FFCFC1",
"P. c #FEC6C5",
"I. c #FFD6D6",
"U. c #FFDEDE",
"Y. c #FFE5C3",
"T. c #FFE9CC",
"R. c #FFEDD4",
"E. c #FFE4DE",
"W. c #FFEFDA",
"Q. c #FFF0DC",
"!. c #FFE5E4",
"~. c #FFEDED",
"^. c #FFF3E2",
"/. c #FFF6EA",
"(. c #FFF9EE",
"). c #FFF4F4",
"_. c #FFFAF4",
"`. c #FFFFFF",
"'. c None",
/* pixels */
"'.'.'.'.'.'.'.'.'.'.'.'.'.'.'.'.'.'.'.'.'.'.'.'.'.'.:.:.;.-.;.-.-.-.-. . .} '.'.'.'.'.'.'.'.'.'.'.'.'.'.'.'.'.'.'.'.'.'.'.'.'.'.",
"'.'.'.'.'.'.'.'.'.'.'.'.'.'.'.'.'.'.'.'.'.'.>.:.>.>.:.:.:.;.;.;.;.-.-.-. . .} } } { '.'.'.'.'.'.'.'.'.'.'.'.'.'.'.'.'.'.'.'.'.'.",
"'.'.'.'.'.'.'.'.'.'.'.'.'.'.'.'.'.'.'.'.>.>.,.,.:.:.:.:.:.:.;.;.;.;.-.-. . .} } { { { _ '.'.'.'.'.'.'.'.'.'.'.'.'.'.'.'.'.'.'.'.",
"'.'.'.'.'.'.'.'.'.'.'.'.'.'.'.'.'.'.,.>.1.:.>.,.>.1.>.>.>.:.:.;.;.-.-.-.-.-.} } } { { _ _ _ ) '.'.'.'.'.'.'.'.'.'.'.'.'.'.'.'.'.",
"'.'.'.'.'.'.'.'.'.'.'.'.'.'.'.'.>.,.>.:.>.1.1.,.1.,.>.,.>.,.,.:.;.;.;.-.-.-. .} } } { { _ _ _ ) '.'.'.'.'.'.'.'.'.'.'.'.'.'.'.'.",
"'.'.'.'.'.'.'.'.'.'.'.'.'.'.:.>.:.,.,.1.1.,.,.,.,.1.1.>.>.1.,.>.:.:.;.;.-.-.-. .} } { { { _ _ ) ) ( '.'.'.'.'.'.'.'.'.'.'.'.'.'.",
"'.'.'.'.'.'.'.'.'.'.'.'.'.:.:.>.,.,.,.>.,.1.1.1.1.1.1.1.1.,.,.,.>.>.:.;.;.-.-. .} } } { { _ _ _ ) ) ( '.'.'.'.'.'.'.'.'.'.'.'.'.",
"'.'.'.'.'.'.'.'.'.'.'.;.:.:.>.>.,.>.1.1.1.1.1.1.1.1.1.1.1.1.1.,.1.>.>.:.;.;.-.-. .} } { { { _ _ _ ) ) ( ( '.'.'.'.'.'.'.'.'.'.'.",
"'.'.'.'.'.'.'.'.'.'.;.;.;.:.>.>.,.1.1.1.1.1.1.1.9.1.9.1.9.1.1.1.1.>.1.:.>.:.;.-.-. . . .} { _ _ _ _ _ _ ) ) '.'.'.'.'.'.'.'.'.'.",
"'.'.'.'.'.'.'.'.'.-.-.;.;.:.>.,.,.,.,.1.1.9.w.1.9.9.9.9.9.9.1.1.1.1.1.,.>.>.:.-.;.-. . .} } { { { _ _ _ _ ) _ '.'.'.'.'.'.'.'.'.",
"'.'.'.'.'.'.'.'.-.;.;.;.:.>.,.,.1.1.1.w.9.1.w.9.9.w.w.w.w.w.9.9.w.1.1.1.,.,.>.:.:.-.-. .} } } } { _ _ _ _ _ _ _ '.'.'.'.'.'.'.'.",
"'.'.'.'.'.'.'.-.-.-.-.:.:.>.,.1.1.1.1.1.w.9.w.w.w.w.w.w.w.w.B.K.V.i.1.1.1.1.,.,.:.;.-.-.-.} } } } { { _ { _ { _ _ '.'.'.'.'.'.'.",
"'.'.'.'.'.'.'. .-.-.-.;.:.,.,.1.1.1.w.1.w.w.w.w.w.e.e.e.e.e.K.`.`.`.t.w.1.i.1.,.>.:.;.;.-.-.}  .} { } { { _ { _ { '.'.'.'.'.'.'.",
"'.'.'.'.'.'.} -.-.-.;.;.:.>.,.1.1.1.w.w.w.w.e.e.t.e.e.t.e.e.(.`.`.Q.w.w.d.`.^.J.d.>.:.:.;.-.-. . . .} } } { { { { { '.'.'.'.'.'.",
"'.'.'.'.'.}  . .-.-.;.:.>.,.,.1.1.w.w.w.e.e.e.t.t.e.t.t.t.j.`.`.`.H.e.w.A.`.`.`.j.1.1.>.:.;.-.-.-. .} } } } { { { } } '.'.'.'.'.",
"'.'.'.'.'.}  . .-.;.;.>.>.,.1.1.1.w.w.e.e.e.Y.D.z.i.y.y.i.Z.`.`.`.V.t.t.Y.`.`.`.w.1.1.,.>.:.:.;.-.-. . . .} } } } } } '.'.'.'.'.",
"'.'.'.'.} } }  .-.-.;.:.>.,.1.1.w.w.w.w.t.j.`.`.`._.R.F.B.Y.`.`.`.d.y.t._.`.`.R.w.1.w.1.1.>.:.:.;.-.-.-.-. . . . . . .} '.'.'.'.",
"'.'.'.{ { } }  .-.-.;.:.,.,.1.1.w.w.e.e.t.Z.`.`.`.`.`.`.`.`.`.`.(.k.i.k.`.`.`.F.e.w.w.1.1.1.,.>.:.:.;.-.-.-.-. . . . . .'.'.'.'.",
"'.'.'.{ { } }  .-.;.;.:.,.,.1.w.w.w.e.t.t.Y.`.`.`.`.`.`.`.`.`.`.`.`._.^.`.`.`.B.t.e.e.w.w.1.1.1.>.>.:.;.;.-.-.-.-. .-. . .'.'.'.",
"'.'.'.{ { } }  .-.-.;.>.1.1.1.w.w.e.t.y.y.i.z.D.^.`.`.`.`.`.`.`.`.`.`.`.`.`.`.F.j.t.e.w.w.w.1.1.1.,.>.:.;.:.-.-.-.-.-. .-.'.'.'.",
"'.'._ _ { {  . .-.;.;.>.,.1.w.w.w.e.t.y.i.i.d.d.f.^.`.`.`.`.`.`.`.`.`.`.`.`.`.`._.K.j.e.w.w.w.1.1.1.,.,.:.:.;.;.-.-.-.-.-.-.'.'.",
"'.'._ { { }  . .-.;.:.>.1.1.9.w.t.e.t.i.i.i.d.f.f.Y.`.`.`.`.`._._.`.`.`.`.`.`.`.`.`._.A.t.e.w.w.1.1.1.>.>.:.:.:.:.;.;.-.-.-.'.'.",
"'._ _ { { { }  .-.;.>.,.1.1.w.w.e.t.i.i.i.d.d.j.j.^.`.`.`.`.`.R.l.V.H.Q.`.`.`.`.`.`.`.`.J.e.w.q.w.1.1.1.1.>.:.:.:.;.;.;.;.-.-.'.",
"'._ _ _ { }  . .-.;.>.,.1.1.w.e.e.y.i.i.d.d.j.j.k.`.`.`.`.`.`.F.l.l.l.k.V.R.`.`.`.`.`.`.`.V.t.w.w.w.w.1.1.1.>.,.:.:.;.;.;.;.;.'.",
"'._ _ { { } }  .-.;.:.,.1.w.w.e.t.y.i.i.d.j.j.j.A.`.`.`.`.`.`.Z.z.z.l.l.k.k.K.`.`.`.`.`.`.^.t.e.e.w.9.9.1.,.1.>.>.>.:.:.;.;.-.'.",
"'._ _ _ { }  .-.;.;.,.,.1.w.w.e.t.i.i.d.d.j.j.k.Y.`.`.`.`.`._.B.z.B.z.z.z.l.k.(.`.`.`.`.`.`.d.t.e.w.w.w.9.1.1.1.1.>.>.:.:.;.:.'.",
"'._ _ } { }  .-.-.:.,.1.1.w.e.e.y.i.d.d.f.j.k.k.^.`.`.`.`.`.R.B.B.B.B.z.z.l.l.R.`.`.`.`.`.`.k.t.t.w.w.9.9.1.1.1.,.,.>.:.:.;.:.;.",
"_ _ _ { }  . .-.;.:.>.1.1.w.e.t.y.i.d.d.j.j.k.C.`.`.`.`.`.`.J.V.B.V.B.B.z.z.l.(.`.`.`.`.`.`.d.y.t.t.w.w.9.9.1.1.1.,.1.:.:.:.:.;.",
"_ _ _ } }  .-.-.;.:.,.1.w.w.e.t.y.i.d.f.j.k.k.A.~.c.x.v.n.b.p.! s.a.a.a.7.5.6.c.b.v.x.b.b.c.G L c x x x V z F ,.1.1.1.,.>.>.:.:.",
"_ _ { { }  .-.-.:.>.1.1.9.w.e.t.y.d.d.f.f.k.k.Y.m.O 9 U U P I U T / ^ ^ I m 0 m T 0 7 4 I 8 z j o & o X % # > D 1.1.,.,.>.>.:.:.",
"{ { { { }  .-.;.;.>.1.1.w.w.t.y.y.i.d.f.k.k.l.^.M.4 !.`.`.`.`.`.`.`.`.`.`.`.`.`.`.`.`.`./.j.i.y.t.t.t.q.w.=.  F 1.>.,.,.>.>.:.:.",
"_ { } }  . .-.-.:.>.1.1.9.w.e.y.i.d.d.f.f.k.z.`.N.2 ~.`.`.`.`.`.`.`.`.`.`.`.`.`.`.`.`.^.l.i.i.y.y.t.e.w.w.<.. F 1.1.1.,.,.>.>.:.",
"_ { } }  .-.-.;.>.,.1.1.w.w.e.y.i.i.d.f.j.k.A.`.P.4 ~.`.`.Y.R._.`.`.`.`.`.`.`.`.`._.A.f.d.d.d.y.t.t.q.e.w.8.u X.<.1.,.,.,.,.:.:.",
"{ { }  .-.-.-.;.>.,.1.9.w.e.t.y.i.d.d.f.j.k.Y.`.M.O ~.`._.V.V.V.A.Y./.`.`.`.`.`.`.`./.B.d.d.i.y.t.t.e.e.w.8.x &.1.1.1.,.,.>.>.:.",
"} }  . .-.-.;.;.,.1.1.w.w.e.e.y.i.d.j.f.j.k.Q.`.N.9 ~.`.R.V.B.h.g.h.C.S.!.!.!.`.`.!.!.E.s.u.y.r.t.t.e.w.w.<.- $.1.1.>.1.,.,.>.:.",
"{ }  . .-.-.;.:.>.1.1.w.w.e.t.t.i.d.d.d.j.l.`.`.N.P ).`.H.B.C.+   k k ~ ! 2 2 !.`.@ O @ O L L j K t.e.e.w.8.e &.1.1.1.>.,.>.>.:.",
" .}  . .-.;.;.:.,.1.1.w.w.e.t.y.i.i.d.f.j.Z.`.`.N.9 ).`.Z.B.B.h.g.5.N J k g.!.`.`.U.I.2 2 5 L 4.0.e.e.w.w.<.i &.1.1.1.>.,.,.:.:.",
" .}  . .-.;.;.,.,.1.1.w.w.e.t.y.y.B.k.d.j.Y.`.`.M.9 )._.B.B.B.B.B.b B M l f.^.`.`.`.).7 4 h c t.t.e.e.w.w.<.x F >.1.,.1.>.:.:.'.",
"'. .-.-.-.;.>.>.>.1.1.w.w.e.e.y.j._.`./.Q.`.`.`.N.I ).R.z.z.z.C.z.W Q h Q h./.`.`.`.).@ O : 1 t.e.e.w.9.9.<.C o.1.,.,.>.>.:.:.'.",
"'.-.-.-.;.;.>.>.1.1.1.w.e.e.e.t.F.`.`.`.`.`.`.`.N.U ).H.l.l.l.l.z.< Q H < V.`.`.`.`.).7 4 h G t.q.w.w.9.1.<.&.>.1.,.>.>.:.:.:.'.",
"'.-.-.;.;.:.:.>.,.1.1.w.w.w.t.y.(.`.`.`.`.`.`.`.N.I ).(.Y.S.B.l.l.Q h < : U.`.`.`.`.).O 2 1 j e.w.w.w.1.<.<.- S >.,.:.:.:.:.:.'.",
"'.-.-.-.;.:.>.,.1.1.9.w.w.e.e.j.^.`.`.`.`.`.`.`.N.I ).`.`.`.`._.^.6 + @ 4 !.`.`.`.`.).4 n Z o w.w.w.1.1.1.>.& X.>.:.:.;.:.-.;.'.",
"'.'.;.;.:.:.>.,.1.1.1.w.w.e.e.t.t.d.V.J.^.`.`.`.N.0 ~.`.`.`.`.`.`.9 2 7 @ ).`.`.`.`._.2 Z e o w.w.1.1.1.1.;.r ..:.:.;.;.;.;.'.'.",
"'.'.-.:.:.>.>.1.1.1.1.w.w.w.e.t.t.y.y.i.i.j.K.`.N.0 ).`.`.`.`.`.`.P @ 4 4 ).`.`.`.`.`.b X   & w.9.1.1.1.,.@.* S :.:.;.;.-.;.'.'.",
"'.'.'.;.:.:.>.,.1.1.1.1.w.w.e.t.e.y.y.y.i.i.Y.`.N.4 A.T._.`.`.`.`.9 4 R U ).`.`.`.`.Y.A y % X 1.1.,.,.,.>.@.; S ;.;.-.;.;.'.'.'.",
"'.'.'.:.:.:.,.1.1.1.1.w.w.w.w.e.t.e.t.y.i.i.^.`.M.v i.d.l.`.`.`._.9 2 9 2 ~.`.`.W.V.w.A 1 e & 1.,.,.>.>.:.+.# f -.;.-.-.-.'.'.'.",
"'.'.'.'.>.>.,.,.1.1.9.9.9.w.w.e.e.t.t.t.y.f.`.`.N.E y.d.A.`.`.`.V.% k W Q V.z.i.e.q.9.y i C t >.>.:.>.:.;.+.* f -.-.-.-.-.'.'.'.",
"'.'.'.'.:.>.,.1.1.1.<.9.9.9.w.w.e.e.t.e.t.Z.`.`.M.H u.i.Y.`.`.`.i.z c Z D q.w.w.9.9.<.# & s s :.:.:.;.-.;.O.  d -.-. .-.'.'.'.'.",
"'.'.'.'.'.>.,.,.1.1.1.w.w.w.w.w.e.e.e.t.t.K.`.`.P.3.t.t._.`.`.W.t.c L u Z 9.w.w.1.1.1.& # . - :.;.-.-.-.-.| # ' -. . .'.'.'.'.'.",
"'.'.'.'.'.,.,.1.1.1.1.1.1.w.w.w.w.w.w.e.e.k.F.Q.L.4.r.f.`.`.`.8 y y F u u C D 1.1.i t * ; ; w ; w -.-.-.-.| ; ]  . . .'.'.'.'.'.",
"'.'.'.'.'.'.,.,.,.1.1.1.1.w.1.w.w.w.e.e.e.e.e.e.%.z w.V._.`.`.a.#.*.=.#.$.X.$.1.1.O.....S d ' ' '  . . .} | $ ` } } '.'.'.'.'.'.",
"'.'.'.'.'.'.'.,.1.,.1.1.1.9.1.w.w.w.w.w.e.e.e.e.%.t q.w.t.l.D.t.9.9.9.1.1.1.,.>.:.;.;.-.-.-. .} } } } } } { * ' } '.'.'.'.'.'.'.",
"'.'.'.'.'.'.'.,.,.,.1.1.1.w.1.w.w.w.w.w.w.w.w.w.*.A 8.w.w.w.9.9.9.1.1.1.,.,.>.;.-.;.-.-. . . .} } } { } { [ $ p } '.'.'.'.'.'.'.",
"'.'.'.'.'.'.'.'.1.1.1.,.1.1.9.1.1.w.1.w.w.w.w.w.*.V 8.9.w.9.9.1.<.1.1.,.>.:.:.;.-.-.-.+.}  .} } { { { _ _ [ * a '.'.'.'.'.'.'.'.",
"'.'.'.'.'.'.'.'.'.1.1.1.1.1.1.1.w.1.1.w.1.w.w.w.=.D V u - % % % % # # & ; & # # # # # # # # # # # # # # # $ q '.'.'.'.'.'.'.'.'.",
"'.'.'.'.'.'.'.'.'.'.,.1.1.1.1.9.1.1.w.1.1.1.1.1.<.X.F C t e e e e e , e e ; e ; ; ; ; = = = = = = = = = = # '.'.'.'.'.'.'.'.'.'.",
"'.'.'.'.'.'.'.'.'.'.'.1.,.1.1.1.1.1.1.1.1.1.1.1.1.1.1.1.,.1.>.>.:.:.;.-.;.-.-.} } } { { { _ _ _ _ _ _ _ _ '.'.'.'.'.'.'.'.'.'.'.",
"'.'.'.'.'.'.'.'.'.'.'.'.'.1.1.,.,.1.1.1.1.1.1.1.,.1.,.1.>.,.>.:.:.;.-.-.-. .} } } { { _ _ _ _ _ ) ( ( '.'.'.'.'.'.'.'.'.'.'.'.'.",
"'.'.'.'.'.'.'.'.'.'.'.'.'.'.,.1.1.1.>.1.1.1.,.1.,.1.,.,.>.>.:.;.-.;.-.-.-.} } } { { { _ _ _ ) ) ) ( '.'.'.'.'.'.'.'.'.'.'.'.'.'.",
"'.'.'.'.'.'.'.'.'.'.'.'.'.'.'.'.1.>.1.1.1.,.,.,.,.:.,.>.:.:.;.;.-.-.-.-.} } } { { { _ _ ) ) ) ( '.'.'.'.'.'.'.'.'.'.'.'.'.'.'.'.",
"'.'.'.'.'.'.'.'.'.'.'.'.'.'.'.'.'.'.,.1.1.,.1.>.>.>.>.:.:.;.-.;.-. . . .} } { { _ _ _ ) ) ) '.'.'.'.'.'.'.'.'.'.'.'.'.'.'.'.'.'.",
"'.'.'.'.'.'.'.'.'.'.'.'.'.'.'.'.'.'.'.'.:.>.>.>.:.:.:.;.;.;.-.-.-. . .} } } { _ { _ _ ) '.'.'.'.'.'.'.'.'.'.'.'.'.'.'.'.'.'.'.'.",
"'.'.'.'.'.'.'.'.'.'.'.'.'.'.'.'.'.'.'.'.'.'.>.:.:.:.;.;.;.-.-.-.-. .} } } } { _ _ _ '.'.'.'.'.'.'.'.'.'.'.'.'.'.'.'.'.'.'.'.'.'.",
"'.'.'.'.'.'.'.'.'.'.'.'.'.'.'.'.'.'.'.'.'.'.'.'.'.'.;.-.-.-.-. . . .} } { { '.'.'.'.'.'.'.'.'.'.'.'.'.'.'.'.'.'.'.'.'.'.'.'.'.'."
};
